<svg id="visual" viewBox="0 0 960 540" width="960" height="540" xmlns="http://www.w3.org/2000/svg" xmlns:xlink="http://www.w3.org/1999/xlink" version="1.1"><path d="M0 440L22.8 440.7C45.7 441.3 91.3 442.7 137 441C182.7 439.3 228.3 434.7 274 436.8C319.7 439 365.3 448 411.2 452.5C457 457 503 457 548.8 454.8C594.7 452.7 640.3 448.3 686 440.8C731.7 433.3 777.3 422.7 823 425C868.7 427.3 914.3 442.7 937.2 450.3L960 458L960 541L937.2 541C914.3 541 868.7 541 823 541C777.3 541 731.7 541 686 541C640.3 541 594.7 541 548.8 541C503 541 457 541 411.2 541C365.3 541 319.7 541 274 541C228.3 541 182.7 541 137 541C91.3 541 45.7 541 22.8 541L0 541Z" fill="#f9bba6"></path><path d="M0 441L22.8 446.3C45.7 451.7 91.3 462.3 137 461.2C182.7 460 228.3 447 274 441.5C319.7 436 365.3 438 411.2 442.8C457 447.7 503 455.3 548.8 458.3C594.7 461.3 640.3 459.7 686 460.3C731.7 461 777.3 464 823 464.3C868.7 464.7 914.3 462.3 937.2 461.2L960 460L960 541L937.2 541C914.3 541 868.7 541 823 541C777.3 541 731.7 541 686 541C640.3 541 594.7 541 548.8 541C503 541 457 541 411.2 541C365.3 541 319.7 541 274 541C228.3 541 182.7 541 137 541C91.3 541 45.7 541 22.8 541L0 541Z" fill="#fdd2c3"></path><path d="M0 490L22.8 488.5C45.7 487 91.3 484 137 485.2C182.7 486.3 228.3 491.7 274 495.2C319.7 498.7 365.3 500.3 411.2 495.3C457 490.3 503 478.7 548.8 472.7C594.7 466.7 640.3 466.3 686 468C731.7 469.7 777.3 473.3 823 473C868.7 472.7 914.3 468.3 937.2 466.2L960 464L960 541L937.2 541C914.3 541 868.7 541 823 541C777.3 541 731.7 541 686 541C640.3 541 594.7 541 548.8 541C503 541 457 541 411.2 541C365.3 541 319.7 541 274 541C228.3 541 182.7 541 137 541C91.3 541 45.7 541 22.8 541L0 541Z" fill="#ffe8e1"></path><path d="M0 506L22.8 505.2C45.7 504.3 91.3 502.7 137 501.7C182.7 500.7 228.3 500.3 274 500.7C319.7 501 365.3 502 411.2 501.8C457 501.7 503 500.3 548.8 501.8C594.7 503.3 640.3 507.7 686 511.5C731.7 515.3 777.3 518.7 823 518.5C868.7 518.3 914.3 514.7 937.2 512.8L960 511L960 541L937.2 541C914.3 541 868.7 541 823 541C777.3 541 731.7 541 686 541C640.3 541 594.7 541 548.8 541C503 541 457 541 411.2 541C365.3 541 319.7 541 274 541C228.3 541 182.7 541 137 541C91.3 541 45.7 541 22.8 541L0 541Z" fill="#ffffff"></path></svg>