<svg id="visual" viewBox="0 0 675 900" width="675" height="900" xmlns="http://www.w3.org/2000/svg" xmlns:xlink="http://www.w3.org/1999/xlink" version="1.1"><path d="M0 255L16 262.3C32 269.7 64 284.3 96.2 274.8C128.3 265.3 160.7 231.7 192.8 212.5C225 193.3 257 188.7 289.2 225.7C321.3 262.7 353.7 341.3 385.8 355.5C418 369.7 450 319.3 482.2 298.2C514.3 277 546.7 285 578.8 314C611 343 643 393 659 418L675 443L675 901L659 901C643 901 611 901 578.8 901C546.7 901 514.3 901 482.2 901C450 901 418 901 385.8 901C353.7 901 321.3 901 289.2 901C257 901 225 901 192.8 901C160.7 901 128.3 901 96.2 901C64 901 32 901 16 901L0 901Z" fill="#ffbfaa"></path><path d="M0 473L16 474.5C32 476 64 479 96.2 469.2C128.3 459.3 160.7 436.7 192.8 416.5C225 396.3 257 378.7 289.2 366.7C321.3 354.7 353.7 348.3 385.8 356.8C418 365.3 450 388.7 482.2 417.3C514.3 446 546.7 480 578.8 505.3C611 530.7 643 547.3 659 555.7L675 564L675 901L659 901C643 901 611 901 578.8 901C546.7 901 514.3 901 482.2 901C450 901 418 901 385.8 901C353.7 901 321.3 901 289.2 901C257 901 225 901 192.8 901C160.7 901 128.3 901 96.2 901C64 901 32 901 16 901L0 901Z" fill="#ffceb4"></path><path d="M0 544L16 555.5C32 567 64 590 96.2 584.2C128.3 578.3 160.7 543.7 192.8 538.8C225 534 257 559 289.2 557.7C321.3 556.3 353.7 528.7 385.8 534C418 539.3 450 577.7 482.2 605.3C514.3 633 546.7 650 578.8 659.7C611 669.3 643 671.7 659 672.8L675 674L675 901L659 901C643 901 611 901 578.8 901C546.7 901 514.3 901 482.2 901C450 901 418 901 385.8 901C353.7 901 321.3 901 289.2 901C257 901 225 901 192.8 901C160.7 901 128.3 901 96.2 901C64 901 32 901 16 901L0 901Z" fill="#ffdec1"></path><path d="M0 757L16 753.5C32 750 64 743 96.2 734.5C128.3 726 160.7 716 192.8 716.3C225 716.7 257 727.3 289.2 737.2C321.3 747 353.7 756 385.8 761.2C418 766.3 450 767.7 482.2 758.7C514.3 749.7 546.7 730.3 578.8 729.8C611 729.3 643 747.7 659 756.8L675 766L675 901L659 901C643 901 611 901 578.8 901C546.7 901 514.3 901 482.2 901C450 901 418 901 385.8 901C353.7 901 321.3 901 289.2 901C257 901 225 901 192.8 901C160.7 901 128.3 901 96.2 901C64 901 32 901 16 901L0 901Z" fill="#ffecd2"></path></svg>