<?xml version="1.0" encoding="UTF-8" standalone="no"?>
<svg
   id="visual"
   viewBox="0 0 960 120"
   width="960"
   height="120"
   version="1.1"
   xmlns="http://www.w3.org/2000/svg"
   xmlns:svg="http://www.w3.org/2000/svg">
  <defs
     id="defs4" />
  <path
     d="m -0.02532178,18.790079 22.79999978,0.7 c 22.9,0.6 68.5,2 114.200002,0.3 45.7,-1.7 91.3,-6.3 137,-4.2 45.7,2.2 91.3,11.2 137.2,15.7 45.8,4.5 91.8,4.5 137.6,2.3 45.9,-2.1 91.5,-6.5 137.2,-14 45.7,-7.5 91.3,-18.0999998 137,-15.7999998 45.7,2.3 91.3,17.6999998 114.2,25.2999998 l 22.8,7.7 v 83.000001 h -22.8 c -22.9,0 -68.5,0 -114.2,0 -45.7,0 -91.3,0 -137,0 -45.7,0 -91.3,0 -137.2,0 -45.8,0 -91.8,0 -137.6,0 -45.9,0 -91.5,0 -137.2,0 -45.7,0 -91.3,0 -137,0 -45.700002,0 -91.300002,0 -114.200002,0 H -0.02532178 Z"
     fill="#ffe7c5"
     id="path1" />
  <path
     d="m -0.02532178,19.790079 22.79999978,5.3 c 22.9,5.4 68.5,16 114.200002,14.9 45.7,-1.2 91.3,-14.2 137,-19.7 45.7,-5.5 91.3,-3.5 137.2,1.3 45.8,4.9 91.8,12.5 137.6,15.5 45.9,3 91.5,1.4 137.2,2 45.7,0.7 91.3,3.7 137,4 45.7,0.4 91.3,-2 114.2,-3.1 l 22.8,-1.2 v 81.000001 h -22.8 c -22.9,0 -68.5,0 -114.2,0 -45.7,0 -91.3,0 -137,0 -45.7,0 -91.3,0 -137.2,0 -45.8,0 -91.8,0 -137.6,0 -45.9,0 -91.5,0 -137.2,0 -45.7,0 -91.3,0 -137,0 -45.700002,0 -91.300002,0 -114.200002,0 H -0.02532178 Z"
     fill="#fed7b5"
     id="path2" />
  <path
     d="m -0.02532178,68.790079 22.79999978,-1.5 c 22.9,-1.5 68.5,-4.5 114.200002,-3.3 45.7,1.1 91.3,6.5 137,10 45.7,3.5 91.3,5.1 137.2,0.1 45.8,-5 91.8,-16.6 137.6,-22.6 45.9,-6 91.5,-6.4 137.2,-4.7 45.7,1.7 91.3,5.3 137,5 45.7,-0.3 91.3,-4.7 114.2,-6.8 l 22.8,-2.2 v 77.000001 h -22.8 c -22.9,0 -68.5,0 -114.2,0 -45.7,0 -91.3,0 -137,0 -45.7,0 -91.3,0 -137.2,0 -45.8,0 -91.8,0 -137.6,0 -45.9,0 -91.5,0 -137.2,0 -45.7,0 -91.3,0 -137,0 -45.700002,0 -91.300002,0 -114.200002,0 H -0.02532178 Z"
     fill="#fdc7a8"
     id="path3" />
  <path
     d="m -0.02532178,84.790079 22.79999978,-0.8 c 22.9,-0.9 68.5,-2.5 114.200002,-3.5 45.7,-1 91.3,-1.4 137,-1 45.7,0.3 91.3,1.3 137.2,1.1 45.8,-0.1 91.8,-1.5 137.6,0 45.9,1.5 91.5,5.9 137.2,9.7 45.7,3.8 91.3,7.2 137,7 45.7,-0.2 91.3,-3.8 114.2,-5.7 l 22.8,-1.8 v 30.000001 h -22.8 c -22.9,0 -68.5,0 -114.2,0 -45.7,0 -91.3,0 -137,0 -45.7,0 -91.3,0 -137.2,0 -45.8,0 -91.8,0 -137.6,0 -45.9,0 -91.5,0 -137.2,0 -45.7,0 -91.3,0 -137,0 -45.700002,0 -91.300002,0 -114.200002,0 H -0.02532178 Z"
     fill="#fcb69f"
     id="path4" />
</svg>
